<svg width="79" height="80" viewBox="0 0 79 80" fill="none" xmlns="http://www.w3.org/2000/svg">
<path d="M72.2151 0.479607C71.0843 0.840843 70.6131 1.2492 66.7652 5.09711L63.0115 8.86649L61.4253 8.04979C59.6505 7.13885 57.436 6.36927 55.3942 5.96092C53.2583 5.53687 49.0334 5.58398 46.8974 6.05516C45.0284 6.46351 42.9239 7.17027 41.7773 7.7828L40.992 8.19115L21.9095 8.26967C3.95785 8.3482 2.79563 8.36391 2.26163 8.63091C1.52346 9.00784 0.769583 9.74601 0.345527 10.5313L0 11.1752V37.2468V63.3184L0.345527 63.9466C0.738171 64.6848 1.50775 65.4386 2.27734 65.847C2.79563 66.1297 3.47097 66.1454 14.7948 66.1925L26.7783 66.2239L25.4433 68.8939L24.1084 71.5639H21.407C18.2972 71.5639 17.8103 71.7052 16.7581 72.8989C16.067 73.6842 15.7843 74.4695 15.7843 75.6003C15.7843 77.1551 17.0879 78.8514 18.6113 79.2597C19.0197 79.3697 24.6423 79.4011 35.8406 79.3854L52.4573 79.3383L53.1012 78.9927C53.8551 78.5844 54.6875 77.6891 55.0016 76.9353C55.3157 76.1657 55.2843 74.7051 54.9231 73.8884C54.5618 73.0402 53.7608 72.2392 52.9284 71.8623C52.3944 71.611 51.8761 71.5639 49.5988 71.5639H46.8817L45.5467 68.8939L44.2117 66.2239H56.0225H67.8489L68.6342 65.847C69.5608 65.4229 70.2833 64.7476 70.6917 63.9152C70.9744 63.3498 70.9901 62.6901 71.0686 50.8323L71.1471 38.3462L71.5555 37.5609C72.168 36.3987 72.9062 34.2313 73.2988 32.4094C73.7543 30.2734 73.7857 26.0172 73.3773 23.9283C72.969 21.9023 72.2622 19.8762 71.3199 17.9915L70.4875 16.311L74.3197 12.4945C78.8744 7.92414 79 7.75138 79 5.44263C79 4.13906 78.9529 3.85635 78.5759 3.1653C78.0419 2.16013 77.1624 1.28061 76.173 0.762321C75.2149 0.275436 73.2674 0.134079 72.2151 0.479607ZM75.0107 3.44801C76.1573 4.21758 76.6127 5.72533 76.0316 6.82474C75.906 7.06033 74.2412 8.80367 72.3565 10.6884L68.9012 14.1279L68.3829 13.5154C67.7076 12.7301 66.6082 11.6307 65.8229 10.9554L65.2103 10.4371L68.5714 7.06033C70.4247 5.20704 72.1523 3.54224 72.4036 3.38518C73.0789 2.96112 74.3197 2.97683 75.0107 3.44801ZM54.5304 8.50526C57.2789 8.94501 59.9803 10.0287 62.4618 11.6778C63.9382 12.6359 66.7024 15.4001 67.6604 16.8607C71.1 22.0593 71.9952 28.2631 70.1262 34.0742C68.2573 39.9168 63.4356 44.7856 57.593 46.7488C52.7086 48.3822 47.1173 47.9738 42.4841 45.6494C36.8614 42.8066 33.0606 37.718 31.8827 31.42C31.5372 29.6452 31.5372 26.4098 31.8827 24.5251C33.2177 17.0806 38.6676 11.081 46.0179 8.97643C46.8032 8.75655 47.8555 8.52097 48.3738 8.44244C49.8972 8.22256 52.9756 8.25396 54.5304 8.50526ZM35.228 12.4945C32.8408 14.976 31.1288 17.7717 30.0922 20.9128C29.3541 23.143 29.1185 24.5094 29.0243 27.0852C28.93 29.7552 29.1028 31.5142 29.6839 33.6973L30.0451 35.048L29.6839 35.4406C28.9771 36.2102 28.9771 36.2102 28.9771 43.4349V50.3611H27.6421H26.3072V38.2991V26.2371L25.9616 25.546C25.302 24.2581 24.1241 23.8498 21.5954 24.0225C20.1819 24.1168 19.3809 24.4466 18.8783 25.1377L18.5328 25.6245L18.4857 37.985L18.4543 50.3611H17.1193H15.7843V33.1947C15.7843 21.2269 15.7372 15.8556 15.6115 15.4158C15.3917 14.6305 14.6064 13.8452 13.8211 13.6253C13.4755 13.5311 12.5646 13.4526 11.7793 13.4526C11.0097 13.4526 10.0831 13.5311 9.73757 13.6253C8.95229 13.8452 8.167 14.6305 7.94712 15.4158C7.82147 15.8556 7.77435 21.2269 7.77435 33.1947V50.3611H7.06759C6.2666 50.3611 5.51272 50.6752 5.35567 51.0679C5.15149 51.6176 5.26143 52.2615 5.65408 52.6385L6.03101 53.0311H22.365H38.6833L39.1074 52.5285C39.4372 52.1359 39.5 51.9317 39.4372 51.5548C39.2801 50.7695 38.8561 50.4711 37.7724 50.3925L36.83 50.3297V47.754C36.83 46.3404 36.8614 45.1782 36.8928 45.1782C36.94 45.1782 37.4425 45.5394 38.008 45.9635C40.9606 48.1937 44.5416 49.6544 48.4366 50.2198C50.4469 50.5025 54.2477 50.314 56.3523 49.8271C58.4726 49.3245 60.7813 48.4136 62.6503 47.3142C64.3779 46.2933 65.5402 45.3981 67.1893 43.7804L68.3986 42.5868V49.1518V55.7011H40.5366H12.6903L12.2662 56.0309C11.8579 56.3607 11.7165 57.0518 11.9521 57.6643C12.2348 58.4025 11.0726 58.3711 40.6779 58.3711H68.3986V60.5699C68.3986 62.7058 68.3829 62.8001 68.006 63.1613L67.629 63.554H35.5264H3.43956L3.01551 63.1142C2.59145 62.6744 2.59145 62.643 2.59145 60.5385V58.3868L5.49702 58.3396C8.15129 58.2925 8.41829 58.2611 8.7167 57.9784C8.88946 57.8056 9.06223 57.4444 9.12505 57.1617C9.20358 56.7377 9.14076 56.5806 8.74811 56.1722L8.27694 55.7011H5.4342H2.59145V33.713V11.7092L2.9841 11.3323L3.36103 10.9397H20.0406H36.7044L35.228 12.4945ZM13.1143 33.2418V50.3611H11.7793H10.4443V33.2418V16.1225H11.7793H13.1143V33.2418ZM23.6372 38.5033V50.3611H22.3022H20.9672V38.5033V26.6454H22.3022H23.6372V38.5033ZM32.3696 39.8697C32.7622 40.4979 33.3433 41.3146 33.626 41.7072L34.16 42.3983V46.3718V50.3611H32.8251H31.4901V44.55C31.4901 41.346 31.5215 38.7389 31.5686 38.7389C31.6 38.7389 31.9612 39.2414 32.3696 39.8697ZM42.6097 68.8154C43.3165 70.2446 43.8976 71.4383 43.8976 71.4854C43.8976 71.5325 40.1125 71.5639 35.495 71.5639H27.0924L28.4274 68.8939L29.7624 66.2239H35.5421H41.3062L42.6097 68.8154ZM51.829 74.3124C52.3473 74.5166 52.6928 75.0349 52.6928 75.5689C52.6928 75.6788 52.5044 75.9929 52.2845 76.2599L51.8761 76.7468H35.5736C19.3338 76.7468 19.2867 76.7468 18.8626 76.417C18.4543 76.0872 18.3129 75.3961 18.5485 74.7836C18.8155 74.0925 18.7684 74.0925 35.4636 74.0768C48.9549 74.0768 51.3736 74.1082 51.829 74.3124Z" fill="black"/>
<path d="M48.0759 11.1908C42.6732 12.2588 37.9457 15.9968 35.7155 20.9441C31.4435 30.4461 36.595 41.5501 46.6153 44.4557C54.4054 46.7173 62.7294 43.1364 66.4831 35.9431C67.9908 33.0376 68.4934 30.7131 68.3521 27.2264C68.1793 22.5932 66.6244 19.1537 63.232 15.8083C60.7348 13.3425 58.159 11.9447 54.8294 11.2537C53.1175 10.8924 49.7407 10.8453 48.0759 11.1908ZM54.9551 13.9865C59.0386 15.0388 62.431 17.8187 64.3157 21.6823C65.368 23.834 65.7763 25.5773 65.7763 27.9803C65.7763 30.9173 65.0382 33.4616 63.499 35.8489C62.7922 36.9483 60.939 39.0529 60.6877 39.0529C60.6091 39.0529 60.5306 35.4562 60.5149 31.0743L60.4678 23.0801L60.0123 22.499C59.337 21.6195 58.8344 21.4624 56.4942 21.4624C54.264 21.4624 53.8399 21.6038 53.1018 22.6089C52.772 23.0487 52.772 23.2215 52.6934 32.7392L52.6149 42.4296L51.327 42.4767L50.0234 42.5238V36.3515C50.0234 29.4409 49.992 29.2996 48.9083 28.5143C48.4215 28.1688 48.2016 28.1374 46.1755 28.0902C44.0867 28.0431 43.9453 28.0588 43.427 28.4044C43.1286 28.6085 42.7203 29.0169 42.5318 29.2996C42.1706 29.8179 42.1706 29.9121 42.1706 34.4354C42.1706 36.9954 42.1077 39.0529 42.0292 39.0529C41.825 39.0529 39.9403 37.0111 39.3435 36.1473C38.6054 35.0793 37.663 32.9747 37.2704 31.5612C36.7835 29.7551 36.7835 26.2998 37.2704 24.4465C38.2755 20.7242 40.6471 17.536 43.8825 15.5885C45.3431 14.7089 47.7461 13.8451 49.3167 13.6252C50.8873 13.4054 53.2588 13.5624 54.9551 13.9865ZM57.8449 32.4879L57.7978 41.0161L56.934 41.3459C56.4628 41.5344 55.9131 41.7386 55.7246 41.8014L55.3634 41.8956V32.9433V23.9753H56.6199H57.8763L57.8449 32.4879ZM47.3535 36.2258C47.3535 40.1366 47.3064 41.8799 47.1807 41.8799C47.0865 41.8799 46.4897 41.66 45.8457 41.393L44.6835 40.9061V35.8489C44.6835 33.0533 44.7306 30.7288 44.7934 30.6817C44.8405 30.6189 45.4531 30.5718 46.1284 30.5718H47.3535V36.2258Z" fill="#23BAB1"/>
</svg>
